# xmcd
#
# Track frame offsets:
#	150
#	12285
#	22985
#	35655
#	49020
#	62252
#	73910
#	83075
#	94345
#	107245
#	120530
#
# Disc length: 1779 seconds
#
# Revision: 0
# Processed by: cddbd v1.5.2PL0 Copyright (c) Steve Scherf et al.
# Submitted via: audiograbber 1.83.01
#
DISCID=8a06f10b
DTITLE=Tammy Wynette - Tammy's Greatest Hits
DYEAR=1900
DGENRE=Country
TTITLE0=Stand By Your Man
TTITLE1=Singing My Song
TTITLE2=Take Me To Your World
TTITLE3=Apartment No 9
TTITLE4=D-I-V-O-R-C-E
TTITLE5=I Don't Wanna Play House
TTITLE6=Your Good Girl's Gonna Go Bad
TTITLE7=Run, Angel, Run
TTITLE8=Too Far Gone
TTITLE9=Almost Persuaded
TTITLE10=My Elusive Dreams
EXTD=
EXTT0=
EXTT1=
EXTT2=
EXTT3=
EXTT4=
EXTT5=
EXTT6=
EXTT7=
EXTT8=
EXTT9=
EXTT10=
PLAYORDER=
